<svg width="122" height="24" viewBox="0 0 122 24" fill="none" xmlns="http://www.w3.org/2000/svg">
<path d="M59.164 5.89551C60.849 5.76268 63.0999 6.07345 64.4843 7.09863C66.0392 8.25014 66.4749 9.33018 66.7802 11.1172L62.7187 11.96C62.3507 10.4351 61.804 9.0837 59.9325 9.14746C59.483 9.16317 58.7223 9.40659 58.4628 9.79688C56.6737 12.4951 61.3964 12.8964 62.9306 13.5156C64.3481 13.996 65.7676 14.7101 66.4677 16.1318C67.3164 17.8559 67.1172 20.3275 65.7753 21.7715C64.1365 23.5342 62.0104 23.8807 59.7206 24C57.5402 23.9875 54.7245 23.5989 53.2538 21.7949C52.3624 20.701 52.3664 18.9558 53.5429 18.0645C54.5845 17.2761 56.3327 17.4638 57.1572 18.4873C57.6236 19.0782 57.4848 19.9494 57.3788 20.6484C58.4729 20.8898 60.8228 21.2524 61.5322 20.1133C62.6951 18.2439 60.7658 17.4713 59.2529 17.1064C56.5489 16.4543 53.2992 15.5739 52.9824 12.25C52.6411 8.09523 55.5678 6.25351 59.164 5.89551ZM46.9511 0.693359C46.9131 2.46972 46.9572 4.43654 46.954 6.23047C48.3352 6.27957 49.8161 6.21647 51.2431 6.25977C51.23 7.34291 51.2178 8.38125 51.2509 9.46387C49.9171 9.52504 48.3795 9.45958 46.995 9.48926C47.0375 12.6696 46.9212 15.8852 47.0566 19.0645C47.0786 19.5834 47.3671 20.5619 47.9902 20.6289C48.1144 20.3552 48.4268 19.6411 48.6562 19.4668C49.0574 19.1631 49.7525 18.9614 50.2529 19.0146C50.7249 19.0654 51.1579 19.3049 51.4521 19.6777C51.9614 20.3219 51.8903 21.0309 51.7997 21.7871C51.0693 24.4533 46.0682 24.277 44.0771 23.2451C42.9487 22.6599 42.0698 21.5613 41.831 20.3047C41.5551 18.8531 41.6272 17.249 41.6269 15.7725L41.6435 9.50586C41.0308 9.46401 40.3159 9.46935 39.6943 9.46094C39.7273 8.54295 39.6937 7.42577 39.6894 6.49316C40.5593 6.33513 41.1683 6.16199 41.87 5.55957C43.035 4.55863 43.4534 2.15525 43.5224 0.671875L46.9511 0.693359ZM39.1396 6.2334L39.1415 23.4316L35.0956 23.4326L35.038 19.8809C35.0318 19.4794 35.0385 18.4073 34.9775 18.0557C34.8658 17.9916 34.4005 17.9664 34.3818 18.0596C33.7624 21.0975 32.8948 24.0761 29.1484 23.8896C26.307 23.7477 24.8888 22.0826 24.3788 19.4277C23.9548 17.2194 24.148 14.442 24.123 12.1582C24.1016 10.2023 24.0681 8.15891 24.1376 6.22656L29.2929 6.22852L29.2909 12.8867C29.2905 14.3688 29.1933 16.1572 29.4931 17.5645C30.1439 20.6182 33.182 19.9228 33.6845 17.0625C34.0205 15.1495 33.9682 13.7277 33.9667 11.8359V6.22754C35.6621 6.20164 37.4439 6.21884 39.1396 6.2334ZM92.2148 5.76758C92.5034 5.76381 92.794 5.77246 93.082 5.79297C98.6293 6.14008 99.8368 10.9738 99.5419 15.667L89.6474 15.8564C89.7459 16.8774 89.9007 18.1279 90.4784 18.9961C90.8678 19.5828 91.4778 19.9887 92.1689 20.1221C92.8047 20.245 93.5107 20.1516 94.0527 19.7803C94.8868 19.2079 95.0048 18.3547 95.1757 17.4326C96.569 17.6786 98.2613 17.7992 99.6142 18.0986C99.7171 18.2553 99.6731 18.3331 99.6601 18.5488C99.264 22.0208 96.8296 23.6469 93.5683 23.8672C88.2004 24.2292 84.9244 21.3996 84.6327 15.959C84.4241 12.0589 85.6085 7.59134 89.7431 6.16406C90.5666 5.88006 91.3522 5.81417 92.2148 5.76758ZM113.39 0.371094C113.665 1.03322 113.914 1.69931 114.137 2.36719C114.137 2.36951 114.139 2.37278 114.14 2.375C114.146 2.39318 114.152 2.41251 114.158 2.43066L114.155 12.0625H114.138L114.136 19.7861C116.256 18.6439 116.98 21.2499 115.692 22.8691C114.433 24.1554 111.041 24.1749 109.769 22.8564C108.776 21.8252 108.984 19.8084 108.982 18.4463L108.978 14.1494L108.981 9.04395H109L109.005 0.380859L113.39 0.371094ZM106.067 19.7842C108.194 18.6394 108.917 21.2596 107.613 22.8818L107.593 22.9014C106.327 24.1468 102.952 24.1683 101.698 22.8477C100.714 21.81 100.917 19.9079 100.914 18.542L100.911 14.2598L100.918 0.379883L106.072 0.367188L106.067 19.7842ZM17.0302 5.76855C23.1893 5.87744 22.4245 12.723 22.4247 17.0596L22.4238 23.4346H17.2421C17.2018 21.1305 17.2927 18.8259 17.2441 16.499C17.2403 16.3178 17.2412 16.1251 17.2431 15.9238H17.2333C17.2498 14.2226 17.3844 11.9126 16.3486 10.6631C15.73 9.95196 14.2061 10.0193 13.6298 10.7217C13.5696 10.795 13.5119 10.8709 13.457 10.9492C11.9991 13.0503 12.3745 16.8467 12.3798 19.2207L12.3788 23.4336H8.58001C8.17187 22.5438 7.80066 21.6064 7.46673 20.6211C7.38647 20.3684 7.31022 20.1129 7.23626 19.8564L7.23528 15.9238H7.22552V14.1035C7.22754 13.2492 7.22371 12.3943 7.21477 11.54C7.20328 10.982 7.14994 10.3911 7.18841 9.84277C6.69533 10.1986 6.24748 10.4438 5.61321 10.3506C5.16078 10.2798 4.75539 10.0302 4.48821 9.6582C3.5475 8.3565 4.40211 6.38657 6.02727 6.03027C6.25251 5.98091 6.47757 5.94434 6.70013 5.91602C6.70125 5.91055 6.70292 5.90488 6.70403 5.89941C8.70348 5.64327 10.542 6.27039 11.2431 8.44238C11.4586 9.11113 11.259 11.2517 11.4472 11.5195C11.8106 11.566 11.946 11.5643 12.0136 11.457C12.0614 11.3648 12.073 11.2062 12.121 10.9521C12.3316 9.83893 12.6138 8.86325 13.0566 8.06738C13.7924 6.7339 14.9765 5.90123 17.0302 5.76855ZM73.3866 0.354492C73.3912 2.74307 73.4592 5.03795 73.1708 7.41797C73.0997 8.0091 72.5812 11.1985 72.7177 11.4678C72.8847 11.4803 73.1766 11.5313 73.2441 11.3574C73.4103 10.9242 73.4373 10.4281 73.5663 9.97949C74.2572 7.48763 75.5518 5.77016 78.3534 5.76758C84.2313 5.76329 83.4928 13.2114 83.4882 17.1875L83.4843 23.4316L78.2939 23.4326L78.2919 16.2705C78.2919 14.5733 78.7044 10.1464 76.1611 10.1387C72.9998 10.1309 73.4417 15.901 73.4423 18.0029L73.4443 23.4316L68.2997 23.4326L68.2988 8.19824C68.2988 5.78782 68.2038 2.68217 68.3173 0.351562L73.3866 0.354492ZM92.2284 9.74219C90.3215 10.0628 89.9281 11.5778 89.6952 13.2607L92.5683 13.2314L94.9286 13.1846C94.8634 11.3661 94.3668 9.72056 92.2284 9.74219Z" fill="#402A08"/>
<path d="M7.15432 0C6.89593 0.633136 6.65989 1.2694 6.4467 1.90896C6.1363 2.82295 5.86738 3.73043 5.6391 4.63073C3.21484 5.2593 1.77153 8.26905 3.36976 10.4858C3.72173 10.9759 4.20332 11.3508 4.75391 11.5729C4.75282 11.6762 4.75198 11.7794 4.75198 11.8819C4.75199 12.592 4.77755 13.2959 4.82842 13.9933H4.82514C4.88902 14.8922 4.99489 15.7806 5.14323 16.6583C5.40396 18.2009 5.76249 19.6893 6.21875 21.1233C6.52345 22.0235 6.85922 22.8885 7.22574 23.7182H2.26568C1.8353 22.7113 1.47112 21.6942 1.17337 20.667C0.760585 19.1679 0.456505 17.6685 0.260964 16.1694C0.143073 15.1526 0.0653528 14.1455 0.027409 13.1487H0.0291461C0.00974114 12.6588 2.01543e-06 12.1712 0 11.6862C3.77779e-06 10.274 0.0869721 8.82908 0.260771 7.35172C0.456308 5.85261 0.76039 4.35329 1.17318 2.85418C1.43762 1.89386 1.76484 0.942533 2.15411 0L7.15432 0Z" fill="#402A08"/>
<path d="M119.799 0C120.188 0.94253 120.516 1.89385 120.78 2.85418C121.215 4.35331 121.519 5.85259 121.692 7.35172C121.866 8.82909 121.953 10.274 121.953 11.6862C121.953 13.1419 121.866 14.6195 121.692 16.1187C121.519 17.6178 121.215 19.1171 120.78 20.6162C120.492 21.6607 120.131 22.6947 119.695 23.7182H116.885C117.779 22.5584 118.051 20.9873 117.556 19.7521C117.357 19.2533 117.006 18.7633 116.481 18.4374C116.617 17.8362 116.738 17.2261 116.843 16.6074C116.935 16.0618 117.01 15.512 117.07 14.9582H117.043C117.152 13.9464 117.207 12.9208 117.207 11.8817C117.207 10.8606 117.142 9.79582 117.011 8.6878C116.903 7.57978 116.718 6.46075 116.458 5.331C116.219 4.20123 115.903 3.06047 115.512 1.90896C115.299 1.26939 115.063 0.633128 114.805 0L119.799 0Z" fill="#402A08"/>
</svg>
